<svg width="22" height="23" viewBox="0 0 22 23" fill="none" xmlns="http://www.w3.org/2000/svg">
<g filter="url(#filter0_d)">
<path d="M16.25 17H5.75V3H16.25V17ZM13 20H9V19H13V20ZM15 0H7C6.20435 0 5.44129 0.31607 4.87868 0.87868C4.31607 1.44129 4 2.20435 4 3V19C4 19.7956 4.31607 20.5587 4.87868 21.1213C5.44129 21.6839 6.20435 22 7 22H15C15.7956 22 16.5587 21.6839 17.1213 21.1213C17.6839 20.5587 18 19.7956 18 19V3C18 2.20435 17.6839 1.44129 17.1213 0.87868C16.5587 0.31607 15.7956 0 15 0V0Z" fill="white"/>
</g>
<defs>
<filter id="filter0_d" x="0" y="0" width="22" height="30" filterUnits="userSpaceOnUse" color-interpolation-filters="sRGB">
<feFlood flood-opacity="0" result="BackgroundImageFix"/>
<feColorMatrix in="SourceAlpha" type="matrix" values="0 0 0 0 0 0 0 0 0 0 0 0 0 0 0 0 0 0 127 0"/>
<feOffset dy="4"/>
<feGaussianBlur stdDeviation="2"/>
<feColorMatrix type="matrix" values="0 0 0 0 0 0 0 0 0 0 0 0 0 0 0 0 0 0 0.25 0"/>
<feBlend mode="normal" in2="BackgroundImageFix" result="effect1_dropShadow"/>
<feBlend mode="normal" in="SourceGraphic" in2="effect1_dropShadow" result="shape"/>
</filter>
</defs>
</svg>
